<svg width="607" height="77" viewBox="0 0 607 77" fill="none" xmlns="http://www.w3.org/2000/svg">
<g clip-path="url(#clip0_2836_67)">
<path d="M326.374 61.3539H323.962L323.661 58.6866C323.635 58.4535 323.437 58.2774 323.203 58.2774L320.517 58.2767C320.331 58.2767 320.181 58.4274 320.181 58.6135V61.3539L320.204 64.2196V69.1652C320.204 69.793 320.274 70.3624 320.416 70.8725C320.557 71.3827 320.788 71.8223 321.109 72.191C321.429 72.5606 321.856 72.8431 322.389 73.0389C322.921 73.235 323.578 73.3334 324.362 73.3334C324.769 73.3334 325.176 73.298 325.583 73.2277C325.874 73.1775 326.129 73.121 326.348 73.0587C326.494 73.0171 326.592 72.8812 326.589 72.7294L326.554 70.6035C326.551 70.3922 326.356 70.2411 326.149 70.2812C326.107 70.2892 326.063 70.2966 326.018 70.3032C325.806 70.3348 325.607 70.3503 325.419 70.3503C324.871 70.3503 324.491 70.213 324.28 69.9376C324.068 69.6625 323.962 69.25 323.962 68.6998V64.2196H326.374C326.56 64.2196 326.711 64.0688 326.711 63.8829V61.6906C326.711 61.5047 326.56 61.3539 326.374 61.3539Z" fill="#0E1111"/>
<path d="M221.77 62.4272C221.434 61.981 220.991 61.6169 220.443 61.3349C219.911 61.0613 219.267 60.9216 218.514 60.9137L218.516 60.9122C218.504 60.9122 218.492 60.9129 218.481 60.913C218.469 60.9129 218.458 60.9122 218.447 60.9122C218.405 60.9122 218.364 60.9152 218.323 60.9164C217.453 60.9375 216.71 61.0992 216.095 61.4055C215.534 61.6854 215.081 61.9883 214.733 62.3135L214.506 61.5679C214.447 61.3738 214.268 61.2412 214.065 61.2412L211.502 61.241C211.316 61.241 211.165 61.3918 211.165 61.5778V72.602C211.165 72.7879 211.316 72.9387 211.502 72.9387H214.704C214.89 72.9387 215.041 72.7879 215.041 72.6018V66.5965C215.041 66.2677 215.084 65.9505 215.17 65.6453C215.256 65.3399 215.385 65.0697 215.558 64.8349C215.729 64.6 215.945 64.416 216.203 64.2828C216.462 64.15 216.763 64.0833 217.108 64.0833C217.452 64.0833 217.738 64.15 217.965 64.2828C218.192 64.416 218.368 64.5964 218.494 64.8231C218.619 65.0504 218.709 65.3128 218.764 65.6099C218.819 65.9077 218.846 66.2207 218.846 66.5496V72.602C218.846 72.7879 218.997 72.9387 219.183 72.9387H222.385C222.571 72.9387 222.722 72.7879 222.722 72.602V65.704C222.722 65.1249 222.647 64.5453 222.499 63.9657C222.35 63.3867 222.107 62.8735 221.77 62.4272Z" fill="#0E1111"/>
<path d="M250.676 69.8145C250.331 69.6424 250.042 69.4152 249.807 69.1333C249.572 68.8515 249.396 68.5266 249.278 68.1585C249.161 67.7908 249.103 67.4186 249.103 67.0428C249.103 66.6669 249.161 66.2992 249.278 65.9387C249.396 65.5788 249.572 65.2617 249.807 64.9875C250.042 64.7136 250.331 64.4905 250.676 64.318C251.02 64.146 251.42 64.0597 251.874 64.0597C252.313 64.0597 252.704 64.146 253.049 64.318C253.393 64.4905 253.686 64.7173 253.93 64.9992C254.172 65.2811 254.36 65.6022 254.494 65.9622C254.626 66.3226 254.693 66.6905 254.693 67.0663C254.693 67.4422 254.626 67.8102 254.494 68.1703C254.36 68.5307 254.172 68.8515 253.93 69.1333C253.686 69.4152 253.393 69.6424 253.049 69.8145C252.704 69.987 252.313 70.0729 251.874 70.0729C251.42 70.0729 251.02 69.987 250.676 69.8145ZM258.044 56.6667H254.865C254.679 56.6667 254.529 56.8175 254.529 57.0034V62.4859H254.482C254.153 62.0946 253.691 61.7343 253.096 61.4054C252.501 61.0766 251.772 60.9122 250.911 60.9122C250.066 60.9122 249.302 61.0766 248.621 61.4054C247.94 61.7343 247.36 62.1805 246.883 62.7443C246.405 63.308 246.037 63.962 245.779 64.7056C245.52 65.4495 245.391 66.2287 245.391 67.0428C245.391 67.8573 245.516 68.6401 245.767 69.3917C246.017 70.1433 246.381 70.805 246.859 71.3766C247.337 71.9483 247.92 72.4064 248.609 72.7507C249.298 73.0949 250.081 73.2675 250.958 73.2675C251.064 73.2675 251.169 73.264 251.273 73.2581C252.188 73.2383 252.97 73.0699 253.614 72.7484C254.17 72.4714 254.623 72.1726 254.977 71.8531L255.226 72.6198C255.288 72.8099 255.465 72.9387 255.664 72.9387H258.044C258.23 72.9387 258.381 72.7879 258.381 72.602V57.0034C258.381 56.8175 258.23 56.6667 258.044 56.6667Z" fill="#0E1111"/>
<path d="M279.135 61.241H275.871C275.72 61.241 275.587 61.3421 275.547 61.4881L273.571 68.6402H273.525L271.434 61.4833C271.392 61.3397 271.261 61.241 271.111 61.241H267.743C267.592 61.241 267.459 61.3411 267.419 61.4862L265.397 68.6402H265.327L263.374 61.4891C263.334 61.3427 263.201 61.241 263.049 61.241H259.622C259.39 61.241 259.228 61.469 259.303 61.6877L263.111 72.7118C263.158 72.8476 263.286 72.9387 263.429 72.9387H266.817C266.964 72.9387 267.095 72.8424 267.138 72.7015L269.32 65.657H269.367L271.595 72.7035C271.639 72.8435 271.769 72.9387 271.916 72.9387H275.305C275.449 72.9387 275.576 72.848 275.623 72.7124L279.453 61.6882C279.529 61.4694 279.366 61.241 279.135 61.241Z" fill="#0E1111"/>
<path d="M298.528 56.6668H295.279C295.093 56.6668 294.942 56.8175 294.942 57.0035V72.602C294.942 72.7879 295.093 72.9387 295.279 72.9387H298.528C298.714 72.9387 298.865 72.7879 298.865 72.602V57.0035C298.865 56.8175 298.714 56.6668 298.528 56.6668Z" fill="#0E1111"/>
<path d="M304.963 56.6668H301.713C301.528 56.6668 301.377 56.8175 301.377 57.0035V72.602C301.377 72.7879 301.528 72.9387 301.713 72.9387H304.963C305.149 72.9387 305.299 72.7879 305.299 72.602V57.0035C305.299 56.8175 305.149 56.6668 304.963 56.6668Z" fill="#0E1111"/>
<path d="M283.896 69.1333C283.661 68.8515 283.485 68.5266 283.367 68.1585C283.25 67.7908 283.192 67.4186 283.192 67.0428C283.192 66.6669 283.25 66.2992 283.367 65.9387C283.485 65.5788 283.661 65.2617 283.896 64.9875C284.131 64.7136 284.42 64.4905 284.765 64.318C285.109 64.146 285.509 64.0597 285.963 64.0597C286.402 64.0597 286.793 64.146 287.138 64.318C287.482 64.4905 287.775 64.7173 288.019 64.9992C288.261 65.2811 288.449 65.6022 288.582 65.9622C288.715 66.3226 288.782 66.6905 288.782 67.0663C288.782 67.4422 288.715 67.8102 288.582 68.1703C288.449 68.5307 288.261 68.8515 288.019 69.1333C287.775 69.4152 287.482 69.6424 287.138 69.8145C286.793 69.987 286.402 70.0729 285.963 70.0729C285.509 70.0729 285.109 69.987 284.765 69.8145C284.42 69.6424 284.131 69.4152 283.896 69.1333ZM292.133 60.8411L289.449 60.8405C289.244 60.8405 289.065 60.9749 289.007 61.1708L288.693 62.231C288.358 61.9369 287.935 61.6615 287.422 61.4054C286.762 61.0766 285.955 60.9122 285.001 60.9122H285C284.155 60.9122 283.391 61.0766 282.71 61.4054C282.029 61.7343 281.449 62.1805 280.972 62.7443C280.494 63.308 280.126 63.962 279.868 64.7056C279.609 65.4495 279.48 66.2287 279.48 67.0428C279.48 67.8573 279.605 68.6401 279.856 69.3917C280.106 70.1433 280.47 70.805 280.948 71.3766C281.426 71.9483 282.009 72.4064 282.698 72.7507C283.387 73.0949 284.17 73.2675 285.047 73.2675C285.249 73.2675 285.448 73.2564 285.644 73.2349C286.362 73.1753 286.988 73.014 287.521 72.7484C288.152 72.4337 288.652 72.0908 289.023 71.7209L289.315 72.6196C289.377 72.8097 289.554 72.9382 289.753 72.9382L292.133 72.9387C292.319 72.9387 292.47 72.7879 292.47 72.602V61.1778C292.47 60.9918 292.319 60.8411 292.133 60.8411Z" fill="#0E1111"/>
<path d="M244.979 60.9451L244.95 60.9396L244.994 60.9122C244.897 60.9122 244.802 60.9151 244.708 60.9185C244.63 60.9144 244.552 60.9122 244.472 60.9122C243.965 60.9122 243.501 61.0081 243.08 61.1956C242.902 61.256 242.733 61.3257 242.573 61.4055C241.952 61.7154 241.463 62.0534 241.104 62.4188L240.868 61.5899C240.811 61.3919 240.63 61.2553 240.424 61.2553L237.879 61.2549C237.693 61.2549 237.542 61.4057 237.542 61.5916V72.602C237.542 72.7879 237.693 72.9387 237.879 72.9387H241.058C241.244 72.9387 241.395 72.7879 241.395 72.602V66.9416C241.395 66.7075 241.442 66.4343 241.536 66.1221C241.63 65.8097 241.783 65.5208 241.994 65.2552C242.205 64.9897 242.487 64.7633 242.84 64.5757C243.192 64.3886 243.626 64.2946 244.143 64.2946C244.3 64.2946 244.46 64.3027 244.625 64.3181L244.78 64.3374C244.965 64.3555 245.13 64.2202 245.148 64.0351L245.277 61.3166C245.297 61.1318 245.163 60.9655 244.979 60.9451Z" fill="#0E1111"/>
<path d="M227.694 65.7509C227.709 65.4536 227.788 65.1677 227.929 64.8935C228.07 64.6199 228.258 64.3809 228.493 64.1771C228.728 63.9738 229.001 63.813 229.315 63.6957C229.628 63.5782 229.973 63.5195 230.348 63.5195C231.116 63.5195 231.691 63.739 232.075 64.1771C232.458 64.6157 232.65 65.1402 232.65 65.7509H227.694ZM234.553 62.5564C234.036 62.0086 233.417 61.5898 232.697 61.2998C231.977 61.0102 231.186 60.8653 230.325 60.8653C229.432 60.8653 228.602 61.0142 227.835 61.3115C227.067 61.6091 226.402 62.0279 225.838 62.5681C225.275 63.1083 224.828 63.7661 224.5 64.5412C224.17 65.3164 224.006 66.1819 224.006 67.1368C224.006 68.1234 224.174 69.0006 224.511 69.7675C224.848 70.5351 225.31 71.1809 225.897 71.7055C226.484 72.2304 227.169 72.6295 227.952 72.9035C228.735 73.1773 229.565 73.3145 230.442 73.3145C231.632 73.3145 232.678 73.099 233.578 72.6684C234.129 72.405 234.614 72.073 235.032 71.6718C235.192 71.5193 235.194 71.2643 235.038 71.1081L233.374 69.4358C233.222 69.2829 232.971 69.2762 232.82 69.4311C232.599 69.6591 232.339 69.8534 232.04 70.0142C231.617 70.2414 231.1 70.3547 230.49 70.3547C230.145 70.3547 229.812 70.3 229.491 70.1904C229.17 70.0811 228.88 69.9283 228.622 69.7324C228.364 69.5367 228.152 69.3058 227.988 69.0394C227.823 68.7734 227.725 68.4757 227.694 68.1468H236.174C236.189 68.0059 236.197 67.8573 236.197 67.7005C236.197 67.5441 236.197 67.3875 236.197 67.2308C236.197 66.2288 236.052 65.3363 235.763 64.5531C235.472 63.7701 235.07 63.1047 234.553 62.5564Z" fill="#0E1111"/>
<path d="M310.447 65.7509C310.462 65.4536 310.541 65.1677 310.682 64.8935C310.823 64.6199 311.011 64.3809 311.246 64.1771C311.481 63.9738 311.754 63.813 312.068 63.6957C312.381 63.5782 312.725 63.5195 313.101 63.5195C313.868 63.5195 314.444 63.739 314.828 64.1771C315.211 64.6157 315.403 65.1402 315.403 65.7509H310.447ZM317.306 62.5564C316.789 62.0086 316.17 61.5898 315.45 61.2998C314.73 61.0102 313.939 60.8653 313.078 60.8653C312.185 60.8653 311.355 61.0142 310.588 61.3115C309.82 61.6091 309.155 62.0279 308.591 62.5681C308.027 63.1083 307.581 63.7661 307.252 64.5412C306.923 65.3164 306.759 66.1819 306.759 67.1368C306.759 68.1234 306.927 69.0006 307.264 69.7675C307.601 70.5351 308.063 71.1809 308.65 71.7055C309.237 72.2304 309.922 72.6295 310.705 72.9035C311.488 73.1773 312.318 73.3145 313.195 73.3145C314.385 73.3145 315.431 73.099 316.331 72.6684C316.881 72.405 317.366 72.073 317.785 71.6718C317.945 71.5193 317.947 71.2643 317.791 71.1081L316.127 69.4358C315.975 69.2829 315.724 69.2762 315.573 69.4311C315.352 69.6591 315.092 69.8534 314.793 70.0142C314.369 70.2414 313.853 70.3547 313.242 70.3547C312.898 70.3547 312.565 70.3 312.244 70.1904C311.923 70.0811 311.633 69.9283 311.375 69.7324C311.116 69.5367 310.905 69.3058 310.741 69.0394C310.576 68.7734 310.478 68.4757 310.447 68.1468H318.927C318.942 68.0059 318.95 67.8573 318.95 67.7005C318.95 67.5441 318.95 67.3875 318.95 67.2308C318.95 66.2288 318.805 65.3363 318.515 64.5531C318.225 63.7701 317.823 63.1047 317.306 62.5564Z" fill="#0E1111"/>
<path d="M186.952 53.0477C186.87 53.0171 186.783 53.0002 186.694 53.0002H179.527C179.236 53.0002 179 53.2359 179 53.5268V61.0002L186.952 53.0477Z" fill="#0E1111"/>
<path d="M179.154 76.8457C179.25 76.941 179.381 77 179.527 77H186.473C186.764 77 187 76.7641 187 76.4733V69.0003L179.154 76.8457Z" fill="#0E1111"/>
<path d="M195 61.0003V76.9328C195.015 76.94 195.031 76.9464 195.047 76.9525L203 69.0002L195 61.0003Z" fill="#0E1111"/>
<path d="M187 69.0003V53.0684C186.984 53.0611 186.969 53.0538 186.952 53.0477L179 61.0002V76.4734C179 76.6189 179.059 76.7505 179.154 76.8457L187 69.0003Z" fill="#0E1111"/>
<path d="M203 69.0002V53.5269C203 53.236 202.764 53.0002 202.473 53.0002H195.526C195.236 53.0002 195 53.2356 195 53.5262V61.0003L203 69.0002Z" fill="#0E1111"/>
<path d="M203 69.0002L195.047 76.9525C195.129 76.9832 195.216 77 195.306 77H202.473C202.764 77 203 76.7641 203 76.4733V69.0002Z" fill="#0E1111"/>
<path d="M187.001 69.0001H187V69.0001L187.001 69.0001Z" fill="#0E1111"/>
<path d="M195 60.9993H195V61.0001L195 60.9993Z" fill="#0E1111"/>
<path d="M187.216 53.2165C187.153 53.1536 187.08 53.1045 187 53.0684V69.0003L194.784 76.7838C194.847 76.8468 194.92 76.8967 195 76.9329V61.0003L187.216 53.2165Z" fill="#0E1111"/>
</g>
<path d="M564.083 15.7359C563.984 15.9894 563.846 16.1955 563.669 16.3521C563.486 16.512 563.269 16.6295 563.036 16.6962C562.775 16.7713 562.505 16.8084 562.233 16.8062H561.709V19.0228H560.286V12.9149H562.345C562.6 12.9121 562.854 12.9458 563.1 13.0149C563.32 13.0769 563.524 13.1873 563.697 13.338C563.864 13.493 564.007 13.6814 564.093 13.9224C564.18 14.1634 564.238 14.4618 564.238 14.8175C564.238 15.1779 564.188 15.4841 564.089 15.7367M562.653 14.2642C562.563 14.1503 562.416 14.0937 562.212 14.0937H561.716V15.6127H562.187C562.396 15.6127 562.549 15.5538 562.652 15.4376C562.755 15.3213 562.796 15.1252 562.796 14.8454C562.796 14.5719 562.75 14.3781 562.66 14.2642M569.586 17.3642C569.488 17.7518 569.344 18.0873 569.154 18.3454C568.964 18.6035 568.734 18.7972 568.461 18.9267C568.187 19.0561 567.879 19.1189 567.536 19.1189C566.849 19.1189 566.315 18.8647 565.935 18.3547C565.554 17.8448 565.364 17.0527 565.364 15.9777C565.364 14.9028 565.557 14.1053 565.943 13.5907C566.329 13.0761 566.867 12.818 567.553 12.818C568.239 12.818 568.775 13.0738 569.159 13.5868C569.543 14.0999 569.735 14.8888 569.735 15.9584C569.735 16.4993 569.685 16.9674 569.586 17.3627M568.191 15.0547C568.16 14.809 568.117 14.6129 568.059 14.468C568.001 14.3231 567.927 14.2177 567.842 14.1565C567.757 14.0952 567.656 14.0635 567.545 14.0635C567.429 14.0635 567.328 14.0921 567.235 14.151C567.142 14.2099 567.08 14.3099 567.021 14.461C566.963 14.6122 566.922 14.7989 566.894 15.0438C566.865 15.3496 566.852 15.6567 566.856 15.9638L566.898 16.8837C566.928 17.1302 566.972 17.3255 567.03 17.4712C567.088 17.6169 567.16 17.7215 567.244 17.7828C567.332 17.8455 567.437 17.8778 567.545 17.875C567.656 17.875 567.755 17.844 567.842 17.7866C567.93 17.7293 568 17.6277 568.056 17.4766C568.112 17.3255 568.152 17.1395 568.182 16.8954C568.213 16.6512 568.226 16.342 568.226 15.9653L568.182 15.0446M574.646 18.0842C574.552 18.3011 574.411 18.4937 574.231 18.6477C574.048 18.8008 573.838 18.919 573.611 18.9964C573.379 19.0778 573.105 19.1189 572.821 19.1189C572.583 19.1189 572.367 19.0941 572.175 19.0414C571.983 18.9887 571.808 18.9251 571.648 18.8321C571.488 18.7385 571.34 18.6253 571.207 18.495C571.074 18.3632 570.942 18.2144 570.815 18.0455L571.81 17.1465C572.013 17.3906 572.199 17.5758 572.368 17.7006C572.537 17.8254 572.696 17.8882 572.849 17.8882C573.001 17.8882 573.126 17.8494 573.225 17.7696C573.323 17.6898 573.38 17.5681 573.38 17.3991C573.38 17.3115 573.372 17.234 573.354 17.1635C573.336 17.093 573.3 17.0263 573.246 16.9589C573.191 16.8915 573.112 16.8248 573.009 16.7574C572.877 16.6747 572.739 16.6031 572.595 16.5435C572.285 16.4117 572.036 16.2784 571.823 16.1467C571.611 16.0149 571.439 15.8754 571.309 15.7235C571.181 15.578 571.084 15.4075 571.024 15.2229C570.964 15.0174 570.934 14.8039 570.938 14.5897C570.936 14.3507 570.98 14.1136 571.068 13.8914C571.155 13.6767 571.28 13.4884 571.444 13.3287C571.607 13.1691 571.806 13.042 572.04 12.9412C572.292 12.8453 572.56 12.7979 572.829 12.8017C573.062 12.8017 573.271 12.8227 573.453 12.8637C573.635 12.9048 573.802 12.9668 573.949 13.0521C574.099 13.1382 574.238 13.2406 574.365 13.3574C574.503 13.4856 574.631 13.624 574.748 13.7713L573.736 14.678L573.466 14.368C573.389 14.2843 573.318 14.2161 573.248 14.1634C573.184 14.1144 573.112 14.0774 573.035 14.0542C572.954 14.0333 572.87 14.0232 572.786 14.0239C572.646 14.0239 572.538 14.0673 572.463 14.1557C572.388 14.244 572.35 14.344 572.35 14.4603C572.35 14.5424 572.361 14.6153 572.385 14.6788C572.412 14.7491 572.453 14.8131 572.506 14.8671C572.564 14.9291 572.643 14.9873 572.743 15.0454C572.867 15.1159 572.995 15.18 573.126 15.2376C573.435 15.3709 573.694 15.5058 573.907 15.6429C574.121 15.7801 574.293 15.9297 574.427 16.0924C574.558 16.2508 574.657 16.4329 574.72 16.6288C574.78 16.8225 574.813 17.0496 574.813 17.3053C574.817 17.5674 574.766 17.8275 574.664 18.0687M579.75 12.9071V14.1813H578.509V19.015H577.049V14.1813H575.809V12.9071H579.75ZM584.621 19.022V17.6696L584.631 16.7396L584.658 15.9057L584.54 16.3118L584.396 16.7737L584.241 17.2495L584.088 17.6944L583.512 19.2212L582.936 17.6944L582.784 17.2542L582.623 16.7737L582.478 16.3118L582.362 15.9057L582.388 16.7349L582.395 17.6774V19.0375H581.078V12.9149H582.395L582.936 14.4161L583.294 15.4678L583.511 16.2924C583.575 16.0158 583.65 15.7422 583.739 15.4724L584.095 14.4068L584.627 12.9149H585.945V19.022H584.621ZM590.344 19.022L590.117 17.8874H588.913L588.696 19.022H587.194L588.774 12.9149H590.275L591.845 19.022H590.344ZM589.839 16.5001L589.643 15.3965L589.507 14.4665L589.381 15.3965L589.148 16.7001H589.872L589.839 16.5001ZM596.225 12.9133V14.1875H594.986V19.0212H593.529V14.1875H592.289V12.9133H596.225ZM601.121 12.9133V14.1534H598.99V15.1919H600.385V16.4319H598.99V17.7494H601.18V18.9895H597.542V12.8808L601.121 12.9133Z" fill="#0E1111"/>
<path d="M606.171 18.0827C606.077 18.2995 605.936 18.4921 605.757 18.6462C605.578 18.7965 605.369 18.9135 605.137 18.9949C604.882 19.0785 604.616 19.1198 604.348 19.1174C604.131 19.1191 603.914 19.0957 603.703 19.0476C603.509 19.0011 603.335 18.9314 603.174 18.8384C603.014 18.7443 602.866 18.6311 602.733 18.5012C602.592 18.3615 602.461 18.2115 602.342 18.0525L603.336 17.1535C603.539 17.3976 603.726 17.5828 603.894 17.7076C604.063 17.8324 604.223 17.8952 604.373 17.8952C604.524 17.8952 604.649 17.8564 604.749 17.7766C604.849 17.6968 604.904 17.5751 604.904 17.4061C604.906 17.3268 604.897 17.2476 604.878 17.1705C604.859 17.1008 604.824 17.0334 604.769 16.9659C604.715 16.8985 604.635 16.8319 604.535 16.7644C604.434 16.697 604.302 16.6249 604.12 16.5505C603.81 16.4188 603.56 16.2855 603.348 16.1537C603.136 16.022 602.964 15.8825 602.833 15.7306C602.702 15.5787 602.6 15.4205 602.55 15.2299C602.492 15.0238 602.462 14.8108 602.461 14.5967C602.46 14.3577 602.504 14.1205 602.592 13.8984C602.679 13.6837 602.805 13.4954 602.967 13.3358C603.139 13.1703 603.343 13.0414 603.566 12.9568C603.801 12.8638 604.064 12.8173 604.355 12.8173C604.564 12.8151 604.773 12.8357 604.979 12.8785C605.162 12.9196 605.327 12.9816 605.475 13.0668C605.625 13.1515 605.764 13.2541 605.889 13.3722C606.027 13.5014 606.155 13.6397 606.274 13.786L605.261 14.6928L604.991 14.3828C604.925 14.308 604.851 14.2395 604.772 14.1782C604.695 14.1263 604.631 14.0898 604.559 14.0697C604.478 14.0488 604.394 14.0386 604.311 14.0395C604.171 14.0395 604.063 14.0829 603.987 14.1712C603.912 14.2596 603.874 14.3596 603.874 14.4758C603.874 14.558 603.886 14.6308 603.91 14.6944C603.937 14.7646 603.979 14.8287 604.032 14.8827C604.09 14.9447 604.169 15.0028 604.266 15.0609C604.391 15.1315 604.519 15.1957 604.651 15.2531C604.959 15.3864 605.22 15.5213 605.431 15.6585C605.627 15.7802 605.802 15.9316 605.951 16.1072C606.085 16.2622 606.182 16.4482 606.243 16.6435C606.303 16.8388 606.336 17.0644 606.336 17.3201C606.335 17.6053 606.286 17.8603 606.186 18.0835M554.593 13.3838C554.093 12.6893 553.403 12.1533 552.606 11.8399C551.809 11.5265 550.939 11.4487 550.1 11.616C549.479 11.7395 548.892 11.9951 548.379 12.3654C548.141 12.5359 547.926 12.7281 547.732 12.9351L546.413 11.9074C546.79 11.7663 547.967 11.2936 547.48 11.0371C547.35 10.9596 547.083 10.9208 546.739 10.8952L549.58 8.41518L548.78 6.85585L546.141 9.22275C546.141 9.22275 546.139 9.21887 545.882 9.4537L545.877 9.45835H545.874C545.314 9.42193 544.787 9.4692 544.496 9.51028L544.496 9.50873C543.904 9.6149 543.411 9.69163 543.165 9.64435C542.298 9.47618 542.094 8.55468 541.702 8.01915C541.478 7.71534 541.03 7.68046 540.992 7.41928C541.111 7.39727 541.227 7.36083 541.337 7.31078C541.813 7.0837 541.978 6.87057 542.106 6.58227C542.271 6.21646 542.095 5.61505 541.85 5.10974C542.048 4.96713 542.784 4.39285 542.755 4.29442C542.745 4.25799 541.828 4.38432 541.444 4.4595C541.398 4.40175 541.346 4.3497 541.289 4.3045C540.975 4.07354 540.717 3.83949 539.977 4.14794C538.711 4.67728 538.776 5.66465 539.197 6.54429C539.391 6.95195 539.729 7.2077 540.098 7.33713L540.042 7.44408L540.077 7.35651C538.078 9.15997 533.411 12.1973 532.172 12.2577C533.19 12.6545 536.12 12.7088 537.348 11.9764C537.003 13.3714 536.982 14.7626 537.574 15.4484C537.12 15.7856 536.65 16.1491 536.424 16.3785C536.246 16.5513 536.3 16.6404 536.452 16.8435C536.452 16.8435 537.641 16.8667 537.993 16.5304C538.088 16.4412 538.17 16.3599 538.244 16.2839L539.895 17.441L539.74 19.0972C539.459 19.0982 539.179 19.1262 538.903 19.1809C538.281 19.3049 537.702 19.5584 537.183 19.9311C535.189 21.3649 534.731 24.1511 536.163 26.1452C536.664 26.8402 537.354 27.3764 538.151 27.69C538.948 28.0036 539.819 28.0813 540.659 27.9138C541.281 27.7883 541.86 27.5371 542.379 27.1636C543.261 26.5279 543.881 25.5916 544.12 24.5309C544.36 23.4703 544.204 22.3586 543.681 21.4052L544.007 21.196C544.334 21.3758 544.747 21.3665 545.071 21.134C545.394 20.9015 545.537 20.5039 545.458 20.1264L546.89 19.6924C547.431 19.5328 547.51 19.3708 547.376 19.1034C547.194 18.7392 545.826 19.0685 545.648 18.8709L545.261 17.9975L546.01 12.5119L547.275 13.4512C546.755 14.206 546.481 15.1028 546.489 16.0192C546.497 16.9357 546.788 17.8273 547.321 18.5725C547.822 19.2675 548.512 19.8038 549.309 20.1173C550.106 20.4309 550.976 20.5086 551.816 20.3411C552.437 20.2167 553.024 19.9609 553.537 19.5909C555.531 18.1571 555.989 15.3702 554.557 13.3768M542.98 10.5147C543.638 10.5728 544.316 10.5178 544.913 10.4263L545.13 10.9069C544.664 10.9342 544.201 10.9849 543.741 11.0588C543.394 11.1161 542.492 10.2233 542.98 10.5147ZM538.667 15.9135C538.809 15.9121 538.95 15.8983 539.09 15.8724C539.956 15.7898 540.818 15.6792 541.677 15.5407L540.169 16.9745L538.667 15.9135ZM542.543 15.588C542.22 16.7078 541.897 17.4945 541.688 18.0486L540.696 17.3472L542.543 15.588ZM540.294 20.0427C541.201 20.1744 542.022 20.6508 542.586 21.3727L540.016 23.0312L540.294 20.0427ZM541.86 26.4382C541.451 26.7341 540.984 26.9387 540.489 27.038C539.819 27.1708 539.125 27.1086 538.49 26.8587C537.855 26.6088 537.305 26.1817 536.905 25.6283C536.357 24.8627 536.135 23.9112 536.288 22.9822C536.44 22.0532 536.954 21.2225 537.718 20.6721C538.127 20.3761 538.595 20.1717 539.09 20.073C539.28 20.0356 539.472 20.0138 539.666 20.0079L539.329 23.6194C539.323 23.6784 539.335 23.7376 539.361 23.7904C539.388 23.8433 539.429 23.8877 539.479 23.9186C539.547 23.9603 539.628 23.9744 539.705 23.9581C539.744 23.9508 539.781 23.9358 539.814 23.9139L542.929 21.9043C543.742 23.4544 543.317 25.3942 541.861 26.4382M543.348 20.8813C542.993 20.4098 542.547 20.0135 542.038 19.7155C541.528 19.4174 540.965 19.2236 540.38 19.1453L540.498 17.8704L541.507 18.5834C541.396 18.9887 541.444 19.2034 541.773 19.3352L543.538 20.0187L543.548 20.0265C543.475 20.2543 543.481 20.5054 543.581 20.724L543.348 20.8813ZM544.468 19.3313C544.318 19.3368 544.171 19.3766 544.038 19.4475C543.96 19.3584 543.844 19.2693 543.63 19.1313C543.475 19.0275 542.734 18.5873 542.762 18.4958C542.868 18.1765 543.108 17.7006 543.454 17.0272C543.818 17.4278 544.183 18.1106 544.542 18.7988L544.468 19.3313ZM544.802 16.8861L543.998 15.0261C544.024 14.7316 544.009 14.4681 543.941 14.2479L545.337 12.9134L544.802 16.8861ZM543.564 13.7442C542.714 13.1242 540.957 13.4342 539.813 13.6179C540.202 12.7994 540.889 11.9531 541.117 10.9673C541.241 11.5889 543.287 12.2957 543.287 12.2957C543.287 12.2957 544.221 12.0888 545.028 11.7725C545.036 11.7803 545.046 11.788 545.054 11.7958L545.363 12.0252L543.564 13.7442ZM553.035 18.8647C552.626 19.16 552.158 19.364 551.663 19.463C550.297 19.7366 548.892 19.184 548.078 18.0525C547.188 16.8125 547.225 15.1911 548.023 13.9945L550.885 16.1181C550.942 16.1615 551.012 16.1777 551.079 16.17C551.145 16.1622 551.218 16.1266 551.265 16.0654C551.308 16.0081 551.326 15.936 551.316 15.865C551.307 15.794 551.269 15.7298 551.212 15.6864L548.431 13.4954C548.572 13.3487 548.726 13.2151 548.892 13.0963C549.3 12.8003 549.768 12.5959 550.263 12.4972C550.933 12.3643 551.627 12.4266 552.262 12.6767C552.898 12.9267 553.448 13.354 553.848 13.9077C554.396 14.6732 554.618 15.6247 554.466 16.5536C554.313 17.4826 553.799 18.3134 553.036 18.8639M531.428 16.6319L530.557 15.0819L530.351 16.8474L528.607 17.1961L530.222 17.9386L530.016 19.7041L531.22 18.3958L532.836 19.1383L531.966 17.5883L533.17 16.28L531.428 16.6319ZM530.648 24.1108L529.777 22.5608L529.571 24.3263L527.827 24.675L529.442 25.4175L529.236 27.1845L530.441 25.8763L532.057 26.6188L531.186 25.0687L532.39 23.7651L530.648 24.1108ZM524.821 21.4401L523.951 19.8901L523.744 21.6571L522 22.0059L523.616 22.7468L523.409 24.5138L524.614 23.2056L526.229 23.948L525.359 22.398L526.563 21.0921L524.821 21.4401ZM544.32 9.09177C544.8 9.07012 545.281 9.07244 545.76 9.09874L548.442 6.69619L547.264 6.57839L544.308 9.09332" fill="#0E1111"/>
<g clip-path="url(#clip1_2836_67)">
<path d="M301.025 15.538C301.025 19.462 303.588 22.198 307.139 22.198C310.69 22.198 313.253 19.462 313.253 15.538C313.253 11.614 310.69 8.87799 307.139 8.87799C303.588 8.87799 301.025 11.614 301.025 15.538ZM310.91 15.538C310.91 18.346 309.354 20.164 307.139 20.164C304.924 20.164 303.368 18.346 303.368 15.538C303.368 12.73 304.924 10.912 307.139 10.912C309.354 10.912 310.91 12.73 310.91 15.538Z" fill="#0E1111"/>
<path d="M319.851 22.198C322.542 22.198 324.08 19.966 324.08 17.284C324.08 14.602 322.542 12.37 319.851 12.37C318.606 12.37 317.691 12.856 317.087 13.558V12.55H314.89V25.24H317.087V21.01C317.691 21.712 318.606 22.198 319.851 22.198ZM317.032 17.014C317.032 15.232 318.057 14.26 319.412 14.26C321.004 14.26 321.865 15.484 321.865 17.284C321.865 19.084 321.004 20.308 319.412 20.308C318.057 20.308 317.032 19.318 317.032 17.572V17.014Z" fill="#0E1111"/>
<path d="M330.024 22.198C331.946 22.198 333.465 21.208 334.143 19.552L332.257 18.85C331.964 19.822 331.104 20.362 330.024 20.362C328.615 20.362 327.626 19.372 327.461 17.752H334.198V17.032C334.198 14.44 332.715 12.37 329.933 12.37C327.15 12.37 325.356 14.512 325.356 17.284C325.356 20.2 327.278 22.198 330.024 22.198ZM329.914 14.188C331.305 14.188 331.964 15.088 331.983 16.132H327.571C327.901 14.854 328.779 14.188 329.914 14.188Z" fill="#0E1111"/>
<path d="M335.846 22H338.043V16.456C338.043 15.106 339.049 14.386 340.038 14.386C341.246 14.386 341.722 15.232 341.722 16.402V22H343.918V15.772C343.918 13.738 342.71 12.37 340.697 12.37C339.452 12.37 338.592 12.928 338.043 13.558V12.55H335.846V22Z" fill="#0E1111"/>
<path d="M350.352 9.07599L345.373 22H347.698L348.814 19.048H354.489L355.624 22H357.985L353.006 9.07599H350.352ZM351.633 11.632L353.72 17.032H349.583L351.633 11.632Z" fill="#0E1111"/>
<path d="M361.756 9.11353H359.413V22.0375H361.756V9.11353Z" fill="#0E1111"/>
<path d="M295.657 13.8227C296.211 12.1885 296.02 10.3982 295.135 8.91174C293.803 6.63174 291.126 5.45874 288.511 6.01074C287.348 4.72224 285.677 3.98949 283.925 3.99999C281.253 3.99399 278.881 5.68599 278.059 8.18649C276.342 8.53224 274.86 9.58899 273.993 11.0867C272.651 13.3607 272.957 16.2272 274.75 18.1772C274.196 19.8115 274.387 21.6017 275.272 23.0882C276.604 25.3682 279.281 26.5412 281.896 25.9892C283.058 27.2777 284.73 28.0105 286.482 27.9992C289.156 28.006 291.528 26.3125 292.35 23.8097C294.067 23.464 295.549 22.4072 296.416 20.9095C297.756 18.6355 297.45 15.7712 295.658 13.8212L295.657 13.8227ZM286.483 26.431C285.413 26.4325 284.377 26.0642 283.555 25.39C283.593 25.3705 283.657 25.3352 283.699 25.3097L288.559 22.5497C288.808 22.411 288.961 22.1507 288.959 21.8695V15.1322L291.013 16.2985C291.035 16.309 291.05 16.33 291.053 16.354V21.9332C291.05 24.4142 289.006 26.4257 286.483 26.431ZM276.656 22.3037C276.12 21.3932 275.927 20.326 276.111 19.2902C276.147 19.3112 276.21 19.3495 276.255 19.375L281.115 22.135C281.362 22.2767 281.667 22.2767 281.914 22.135L287.847 18.766V21.0985C287.849 21.1225 287.837 21.1457 287.818 21.1607L282.905 23.95C280.717 25.189 277.923 24.4525 276.657 22.3037H276.656ZM275.377 11.872C275.911 10.96 276.754 10.2625 277.758 9.90024C277.758 9.94149 277.756 10.0142 277.756 10.0652V15.586C277.754 15.8665 277.907 16.1267 278.154 16.2655L284.088 19.6337L282.034 20.8C282.013 20.8135 281.987 20.8157 281.964 20.806L277.051 18.0145C274.867 16.771 274.118 14.0237 275.377 11.8727L275.377 11.872ZM292.253 15.7337L286.32 12.3647L288.374 11.1992C288.395 11.1857 288.421 11.1835 288.443 11.1932L293.357 13.9825C295.544 15.2252 296.294 17.977 295.03 20.128C294.496 21.0385 293.654 21.736 292.651 22.099V16.4132C292.653 16.1327 292.501 15.8732 292.254 15.7337H292.253ZM294.297 12.7082C294.261 12.6865 294.198 12.649 294.153 12.6235L289.293 9.86349C289.047 9.72174 288.742 9.72174 288.495 9.86349L282.561 13.2325V10.9C282.56 10.876 282.571 10.8527 282.59 10.8377L287.503 8.05074C289.691 6.80949 292.489 7.54824 293.75 9.70074C294.284 10.6097 294.476 11.674 294.296 12.7082H294.297ZM281.445 16.8655L279.39 15.6992C279.368 15.6887 279.353 15.6677 279.35 15.6437V10.0645C279.352 7.58049 281.401 5.56749 283.927 5.56899C284.996 5.56899 286.03 5.93799 286.852 6.60999C286.814 6.62949 286.75 6.66474 286.707 6.69024L281.847 9.45024C281.599 9.58899 281.446 9.84849 281.448 10.1297L281.445 16.864V16.8655ZM282.561 14.5L285.203 12.9992L287.846 14.4992V17.5L285.203 19L282.561 17.5V14.5Z" fill="#0E1111"/>
</g>
<g clip-path="url(#clip2_2836_67)">
<path d="M118.64 19.5693L122.375 26.4037H115.446L112.293 20.5631H109.306V26.4037H103V5.6999H114.533C119.304 5.6999 122.333 8.34781 122.333 13.1097C122.333 16.1739 120.922 18.3689 118.64 19.5693ZM109.306 11.0807V15.1801H113.786C115.114 15.1801 115.944 14.3933 115.944 13.1097C115.944 11.8261 115.114 11.0807 113.786 11.0807H109.306ZM142.413 27.9342L123.536 22.841L128.598 4L138.036 6.54658L147.474 9.09314L142.413 27.9342ZM138.845 14.0621L133.576 12.6128L132.165 17.8716L137.434 19.3213L138.845 14.0621ZM169.089 20.5631C169.089 24.5382 166.558 26.4037 162.617 26.4037H150.254V5.6999H162.202C166.143 5.6999 168.674 7.72887 168.674 11.2899C168.674 13.526 167.844 15.0171 166.268 16.0523C168.052 16.8364 169.089 18.4103 169.089 20.5631ZM156.394 10.6688V13.733H160.499C161.619 13.733 162.283 13.2361 162.283 12.1595C162.283 11.1657 161.619 10.6688 160.499 10.6688H156.394ZM156.394 21.4349H160.999C162.077 21.4349 162.702 20.8551 162.702 19.8609C162.702 18.7847 162.08 18.2878 160.999 18.2878H156.394V21.4349ZM172.2 5.6999H178.505V20.2736H187.549V26.4037H172.199L172.2 5.6999ZM210.742 16.0523C210.742 18.1816 210.109 20.2631 208.924 22.0336C207.738 23.8041 206.054 25.1839 204.083 25.9988C202.112 26.8136 199.943 27.0269 197.851 26.6114C195.758 26.1959 193.836 25.1706 192.328 23.6649C190.819 22.1592 189.792 20.241 189.376 18.1526C188.96 16.0642 189.173 13.8995 189.99 11.9323C190.806 9.96505 192.189 8.28364 193.962 7.10065C195.736 5.91766 197.822 5.28625 199.955 5.28625C201.372 5.28344 202.776 5.55992 204.086 6.09982C205.396 6.63974 206.586 7.43245 207.588 8.43249C208.59 9.43255 209.384 10.6202 209.926 11.9274C210.467 13.2347 210.744 14.6357 210.742 16.0501V16.0523ZM204.436 16.0523C204.436 13.4845 202.403 11.4556 199.955 11.4556C197.507 11.4556 195.474 13.4845 195.474 16.0523C195.474 18.62 197.507 20.6485 199.955 20.6485C202.403 20.6485 204.436 18.6169 204.436 16.0501V16.0523ZM225.926 15.7206L232.73 26.4037H225.219L221.487 20.3146L217.628 26.4037H209.995L217.089 15.9686L210.576 5.6999H218.085L221.528 11.2899L224.847 5.6999H232.314L225.926 15.7206Z" fill="#0E1111"/>
</g>
<path d="M417.081 10.1172L418.713 7.28075C419.189 6.45034 418.909 5.38667 418.079 4.91082C417.249 4.43497 416.185 4.71488 415.709 5.54529L414.067 8.38174C410.577 7.28075 406.668 8.7083 404.764 12.0113C403.552 14.1106 403.402 16.5272 404.139 18.6452L407.162 13.4015C407.853 12.1979 408.982 11.3395 410.325 10.9756C411.669 10.6117 413.069 10.7983 414.272 11.4981C416.754 12.935 417.612 16.126 416.176 18.6079C414.739 21.0898 411.557 21.9482 409.066 20.5113L410.801 17.5069C411.632 17.9827 412.695 17.7028 413.171 16.8724C413.647 16.042 413.367 14.9783 412.537 14.5025C411.706 14.0266 410.643 14.3065 410.167 15.137L404.643 24.7193C404.167 25.5497 404.447 26.6134 405.278 27.0892C406.108 27.5651 407.172 27.2851 407.648 26.4547L409.29 23.6183C412.779 24.7193 416.689 23.2917 418.592 19.9888C420.496 16.6951 419.777 12.5991 417.081 10.1172Z" fill="#0E1111"/>
<path d="M450.857 12.0859C448.655 12.0859 446.901 13.7468 446.901 16.0047C446.901 18.2627 448.655 19.9235 450.857 19.9235C453.059 19.9235 454.813 18.2627 454.813 16.0047C454.813 13.7468 453.059 12.0859 450.857 12.0859ZM468.071 12.0859C465.869 12.0859 464.115 13.7468 464.115 16.0047C464.115 18.2627 465.869 19.9235 468.071 19.9235C470.273 19.9235 472.027 18.2627 472.027 16.0047C472.027 13.7468 470.273 12.0859 468.071 12.0859ZM474.546 12.1138V19.8207H476.021V16.6205C476.021 16.07 475.909 15.2302 475.909 15.2302C475.909 15.2302 476.441 15.9113 476.823 16.2751L480.667 19.8954H480.826V12.1885H479.352V15.3888C479.352 15.9113 479.454 16.779 479.454 16.779C479.454 16.779 478.932 16.0793 478.559 15.7341L474.705 12.1138H474.546ZM424.424 12.1792V19.8302H426V17.3203H427.111C428.669 17.3203 429.957 16.5365 429.957 14.7451C429.957 12.9537 428.669 12.1792 427.111 12.1792H424.424ZM432.261 12.1792V19.8207H437.477V18.4399H433.838V16.6671H436.908V15.3142H433.838V13.56H437.318V12.1792H432.261ZM440.117 12.1792V19.8207H445.146V18.4399H441.685V12.1792H440.117ZM456.502 12.1792V13.56H458.675V19.8207H460.252V13.56H462.436V12.1792H456.502ZM450.857 13.4855C452.247 13.4855 453.189 14.5772 453.189 16.0047C453.189 17.4323 452.247 18.5239 450.857 18.5239C449.466 18.5239 448.524 17.4323 448.524 16.0047C448.524 14.5772 449.466 13.4855 450.857 13.4855ZM468.071 13.4855C469.462 13.4855 470.404 14.5772 470.404 16.0047C470.404 17.4323 469.462 18.5239 468.071 18.5239C466.681 18.5239 465.739 17.4323 465.739 16.0047C465.739 14.5772 466.681 13.4855 468.071 13.4855ZM426 13.5693H427.064C427.82 13.5693 428.333 13.8867 428.333 14.7451C428.333 15.5942 427.839 15.9393 427.064 15.9393H426V13.5693Z" fill="#0E1111"/>
<path fill-rule="evenodd" clip-rule="evenodd" d="M33.124 11.134C32.5955 10.6895 31.6935 10.4675 30.4175 10.4675H27.5395V19.3615H29.6915V16.574H30.6555C31.8255 16.574 32.6835 16.3165 33.2295 15.801C33.8445 15.2235 34.154 14.4545 34.154 13.4945C34.154 12.499 33.8105 11.712 33.124 11.134ZM30.602 14.5615H29.6915V12.48H30.5095C31.5045 12.48 32.002 12.829 32.002 13.527C32.002 14.216 31.535 14.5615 30.602 14.5615ZM37.8365 10.467H35.5925V19.361H40.4375V17.348H37.8365V10.467ZM44.834 10.467L41.309 19.361H43.725L44.187 18.068H47.25L47.6725 19.361H50.1155L46.6155 10.467H44.834ZM44.8075 16.2675L45.732 13.2275L46.642 16.2675H44.8075Z" fill="#0E1111"/>
<path fill-rule="evenodd" clip-rule="evenodd" d="M51.2365 19.361H53.481V10.467H51.2365V19.361ZM62.195 12.134C61.9115 11.7229 61.5475 11.3737 61.125 11.1075C60.4475 10.6805 59.523 10.4675 58.3525 10.4675H55.3955V19.361H58.8545C60.1045 19.361 61.1075 18.9525 61.8645 18.1345C62.6215 17.317 62.9995 16.232 62.9995 14.8805C62.9995 13.8055 62.7315 12.89 62.195 12.134ZM58.6035 17.3475H57.64V12.4805H58.617C59.3035 12.4805 59.831 12.6955 60.201 13.124C60.571 13.5525 60.756 14.1605 60.756 14.9475C60.756 16.5475 60.0385 17.3475 58.6035 17.3475ZM9.3185 3L2.045 4.905L0.0405 12.2195L2.5475 14.7935L0 17.325L1.8865 24.6715L9.1285 26.695L11.6765 24.163L14.1835 26.7365L21.457 24.8315L23.461 17.5165L20.9545 14.9435L23.502 12.412L21.6155 5.065L14.3725 3.0415L11.8255 5.573L9.3185 3ZM4.855 6.312L8.6865 5.308L10.362 7.028L7.9185 9.456L4.855 6.312ZM13.266 7.051L14.9685 5.3595L18.7835 6.4255L15.67 9.519L13.266 7.051ZM2.336 11.619L3.3915 7.7665L6.454 10.9105L4.011 13.3385L2.336 11.6185V11.619ZM17.1095 10.9975L20.223 7.903L21.216 11.773L19.514 13.465L17.1095 10.9975ZM9.3585 10.934L11.802 8.506L14.2055 10.974L11.7625 13.402L9.3585 10.934ZM5.4515 14.8165L7.8945 12.3885L10.2995 14.8565L7.8555 17.2845L5.4515 14.8165ZM13.203 14.88L15.646 12.452L18.05 14.92L15.6065 17.348L13.203 14.88ZM2.285 17.9635L3.988 16.271L6.3915 18.7395L3.279 21.8325L2.285 17.9635ZM9.2955 18.7625L11.739 16.3345L14.143 18.8025L11.7 21.2305L9.2955 18.7625ZM17.0465 18.8265L19.49 16.3985L21.1655 18.118L20.1105 21.9705L17.0465 18.8265ZM4.7185 23.3115L7.8315 20.217L10.2365 22.685L8.5335 24.3775L4.7185 23.3115ZM13.14 22.7085L15.583 20.2805L18.646 23.425L14.815 24.4285L13.14 22.7085Z" fill="#0E1111"/>
<g clip-path="url(#clip3_2836_67)">
<path d="M72.2459 66.8159L70.3264 61.6417C70.2481 61.43 69.9487 61.43 69.8703 61.6417L67.9511 66.8162C67.9374 66.853 67.9329 66.8926 67.9379 66.9315C67.9428 66.9704 67.9571 67.0075 67.9795 67.0397C68.002 67.0719 68.0318 67.0982 68.0666 67.1164C68.1014 67.1345 68.14 67.144 68.1792 67.144H72.0178C72.057 67.144 72.0957 67.1345 72.1304 67.1163C72.1652 67.0981 72.195 67.0718 72.2174 67.0396C72.2398 67.0074 72.2541 66.9702 72.259 66.9313C72.264 66.8924 72.2594 66.8529 72.2458 66.8161M73.1326 69.7243H67.0645C67.0149 69.7243 66.9664 69.7395 66.9257 69.7679C66.8849 69.7962 66.8538 69.8364 66.8365 69.8829L65.6419 73.1025C65.6246 73.149 65.5935 73.1891 65.5527 73.2175C65.512 73.2458 65.4635 73.261 65.4139 73.2611H62.7838C62.744 73.261 62.7049 73.2513 62.6697 73.2326C62.6346 73.214 62.6046 73.187 62.5823 73.1541C62.5601 73.1212 62.5462 73.0833 62.542 73.0437C62.5377 73.0042 62.5433 72.9642 62.558 72.9273L68.6133 57.8427C68.6315 57.7976 68.6627 57.759 68.7029 57.7319C68.7432 57.7047 68.7907 57.6902 68.8392 57.6902H71.3576C71.4569 57.6902 71.5462 57.7506 71.5833 57.8427L77.6385 72.9272C77.6533 72.9641 77.6589 73.0041 77.6547 73.0437C77.6505 73.0832 77.6367 73.1212 77.6144 73.1542C77.5921 73.1871 77.562 73.2141 77.5269 73.2328C77.4917 73.2515 77.4525 73.2612 77.4127 73.2612H74.7831C74.7335 73.2612 74.685 73.246 74.6442 73.2176C74.6035 73.1892 74.5724 73.149 74.5551 73.1025L73.3603 69.8829C73.343 69.8364 73.3119 69.7962 73.2712 69.7679C73.2304 69.7395 73.182 69.7243 73.1323 69.7243M78.8707 62.9842H81.1203C81.1848 62.9842 81.2466 63.0098 81.2923 63.0554C81.3379 63.1011 81.3635 63.1629 81.3635 63.2274V73.0178C81.3635 73.0823 81.3379 73.1442 81.2923 73.1898C81.2466 73.2354 81.1848 73.2611 81.1203 73.2611H78.8707C78.8062 73.2611 78.7444 73.2354 78.6987 73.1898C78.6531 73.1442 78.6275 73.0823 78.6275 73.0178V63.2273C78.6275 63.1628 78.6531 63.1009 78.6987 63.0553C78.7444 63.0097 78.8062 62.9842 78.8707 62.9842ZM89.5676 65.3657C89.5676 65.4302 89.542 65.4921 89.4964 65.5377C89.4508 65.5833 89.3889 65.6089 89.3244 65.6089H89.2563C88.144 65.6089 87.3282 65.8759 86.8092 66.4097C86.29 66.9435 86.0309 67.826 86.0309 69.0568V73.0178C86.0309 73.0823 86.0052 73.1442 85.9596 73.1898C85.914 73.2354 85.8521 73.2611 85.7876 73.2611H83.5602C83.4956 73.2611 83.4338 73.2354 83.3882 73.1898C83.3425 73.1442 83.3169 73.0823 83.3169 73.0178V63.2273C83.3169 63.1628 83.3425 63.1009 83.3882 63.0553C83.4338 63.0097 83.4956 62.984 83.5602 62.984H85.7652C85.8297 62.984 85.8916 63.0097 85.9372 63.0553C85.9828 63.1009 86.0085 63.1628 86.0085 63.2273V65.1638H86.0531C86.32 64.3631 86.7426 63.748 87.3212 63.3176C87.8993 62.8877 88.6112 62.6725 89.4564 62.6725H89.5676V65.3657ZM95.7184 65.2752C95.6539 65.2752 95.592 65.3008 95.5464 65.3465C95.5008 65.3921 95.4752 65.4539 95.4752 65.5185V69.5907C95.4752 70.006 95.5563 70.3026 95.7197 70.4805C95.8827 70.6584 96.1645 70.7474 96.5649 70.7474H96.7889C96.8534 70.7474 96.9152 70.773 96.9609 70.8186C97.0065 70.8642 97.0321 70.9261 97.0321 70.9906V73.0399C97.0321 73.1044 97.0065 73.1663 96.9609 73.2119C96.9152 73.2575 96.8534 73.2831 96.7889 73.2831H95.8308C94.8372 73.2831 94.0736 73.0274 93.5398 72.5158C93.0058 72.0041 92.7389 71.2444 92.7389 70.2358V65.5185C92.7389 65.4539 92.7132 65.3921 92.6676 65.3465C92.622 65.3008 92.5601 65.2752 92.4956 65.2752H91.0914C91.0269 65.2752 90.9651 65.2496 90.9194 65.204C90.8738 65.1584 90.8482 65.0965 90.8482 65.032V63.2273C90.8482 63.1628 90.8738 63.1009 90.9194 63.0553C90.9651 63.0097 91.0269 62.984 91.0914 62.984H92.4958C92.5603 62.984 92.6222 62.9584 92.6678 62.9128C92.7134 62.8672 92.739 62.8053 92.739 62.7408V59.1121C92.739 59.0476 92.7646 58.9857 92.8103 58.9401C92.8559 58.8945 92.9177 58.8688 92.9823 58.8688H95.2318C95.2963 58.8688 95.3582 58.8945 95.4038 58.9401C95.4494 58.9857 95.475 59.0476 95.475 59.1121V62.7408C95.475 62.8053 95.5006 62.8672 95.5463 62.9128C95.5919 62.9584 95.6537 62.984 95.7183 62.984H97.3449C97.4094 62.984 97.4713 63.0097 97.5169 63.0553C97.5625 63.1009 97.5882 63.1628 97.5882 63.2273V65.0321C97.5882 65.0966 97.5625 65.1585 97.5169 65.2041C97.4713 65.2498 97.4094 65.2754 97.3449 65.2754L95.7184 65.2752ZM106.019 70.2135C106.531 69.6797 106.786 68.9827 106.786 68.1225C106.786 67.2627 106.531 66.5654 106.019 66.0315C105.508 65.4977 104.836 65.2308 104.006 65.2308C103.175 65.2308 102.505 65.4977 101.993 66.0315C101.481 66.5654 101.225 67.2627 101.225 68.1225C101.225 68.9827 101.481 69.6797 101.993 70.2135C102.505 70.7474 103.175 71.0143 104.006 71.0143C104.836 71.0143 105.508 70.7474 106.019 70.2135ZM100.825 72.9495C100.069 72.5197 99.4717 71.8929 99.0345 71.0699C98.5968 70.2469 98.3782 69.2646 98.3782 68.1225C98.3782 66.9808 98.5968 65.9981 99.0345 65.1752C99.4717 64.3522 100.069 63.7259 100.825 63.2955C101.581 62.8655 102.412 62.6505 103.316 62.6505C104.117 62.6505 104.803 62.8061 105.374 63.1175C105.945 63.4288 106.401 63.8665 106.742 64.43H106.786V63.2273C106.786 63.1628 106.812 63.1009 106.858 63.0553C106.903 63.0097 106.965 62.984 107.03 62.984H109.257C109.322 62.984 109.383 63.0097 109.429 63.0553C109.475 63.1009 109.5 63.1628 109.5 63.2273V73.0177C109.5 73.0822 109.475 73.144 109.429 73.1897C109.383 73.2353 109.322 73.2609 109.257 73.2609H107.03C106.965 73.2609 106.903 73.2353 106.858 73.1897C106.812 73.144 106.786 73.0822 106.786 73.0177V71.8151H106.742C106.401 72.3789 105.945 72.8161 105.374 73.1274C104.803 73.4388 104.117 73.5945 103.316 73.5945C102.412 73.5945 101.581 73.3794 100.825 72.9495ZM118.763 70.2135C119.275 69.6797 119.531 68.9827 119.531 68.1225C119.531 67.2627 119.275 66.5654 118.763 66.0315C118.252 65.4977 117.581 65.2308 116.75 65.2308C115.92 65.2308 115.249 65.4977 114.737 66.0315C114.226 66.5654 113.97 67.2627 113.97 68.1225C113.97 68.9827 114.226 69.6797 114.737 70.2135C115.249 70.7474 115.92 71.0143 116.75 71.0143C117.581 71.0143 118.252 70.7474 118.763 70.2135ZM115.382 73.1274C114.811 72.8161 114.355 72.3789 114.014 71.8151H113.97V73.0177C113.97 73.0822 113.944 73.144 113.899 73.1897C113.853 73.2353 113.791 73.2609 113.727 73.2609H111.477C111.413 73.2609 111.351 73.2353 111.305 73.1897C111.259 73.144 111.234 73.0822 111.234 73.0177V57.933C111.234 57.8685 111.259 57.8066 111.305 57.761C111.351 57.7154 111.413 57.6898 111.477 57.6898H113.727C113.791 57.6898 113.853 57.7154 113.899 57.761C113.944 57.8066 113.97 57.8685 113.97 57.933V64.4299H114.014C114.355 63.8664 114.811 63.4288 115.382 63.1175C115.953 62.806 116.639 62.6503 117.44 62.6503C118.344 62.6503 119.175 62.8653 119.931 63.2954C120.688 63.7258 121.284 64.352 121.722 65.1748C122.159 65.9983 122.378 66.981 122.378 68.1226C122.378 69.2647 122.159 70.2469 121.722 71.0701C121.285 71.8931 120.688 72.5198 119.931 72.9495C119.175 73.3796 118.345 73.5948 117.44 73.5948C116.639 73.5948 115.953 73.4391 115.383 73.1276M126.168 73.2611H123.919C123.854 73.2611 123.793 73.2354 123.747 73.1898C123.701 73.1442 123.676 73.0823 123.676 73.0178V57.9335C123.676 57.869 123.701 57.8071 123.747 57.7615C123.793 57.7159 123.854 57.6902 123.919 57.6902H126.168C126.233 57.6902 126.295 57.7159 126.34 57.7615C126.386 57.8071 126.412 57.869 126.412 57.9335V73.0178C126.412 73.0823 126.386 73.1442 126.34 73.1898C126.295 73.2354 126.233 73.2611 126.168 73.2611ZM131.475 65.3644C131.102 65.6553 130.85 66.0753 130.719 66.6247C130.684 66.7762 130.802 66.9215 130.958 66.9215H135.239C135.387 66.9215 135.504 66.7885 135.48 66.6419C135.394 66.1222 135.171 65.7079 134.811 65.3978C134.389 65.0346 133.836 64.8529 133.154 64.8529C132.472 64.8529 131.912 65.0234 131.475 65.3644ZM136.958 64.0853C137.833 65.042 138.27 66.3953 138.27 68.1448V68.4354C138.27 68.4999 138.245 68.5618 138.199 68.6074C138.153 68.6531 138.092 68.6787 138.027 68.6787H130.875C130.839 68.6788 130.804 68.6866 130.772 68.7017C130.74 68.7167 130.711 68.7387 130.688 68.7659C130.665 68.7932 130.648 68.8252 130.639 68.8595C130.63 68.8939 130.628 68.9299 130.634 68.9651C130.749 69.615 131.036 70.1313 131.497 70.5139C132.023 70.9517 132.687 71.1701 133.488 71.1701C134.522 71.1701 135.478 70.7667 136.358 69.9596C136.466 69.861 136.636 69.8819 136.72 70.0018L137.813 71.5715C137.848 71.6203 137.863 71.68 137.856 71.7393C137.849 71.7986 137.821 71.8532 137.776 71.8929C137.239 72.3628 136.642 72.7593 136.001 73.072C135.289 73.4203 134.451 73.5948 133.488 73.5948C132.376 73.5948 131.404 73.3684 130.574 72.9163C129.743 72.4642 129.098 71.8266 128.639 71.0033C128.179 70.1803 127.949 69.2276 127.949 68.1448C127.949 67.0626 128.171 66.1061 128.616 65.2754C129.061 64.4451 129.684 63.8 130.485 63.3401C131.286 62.8807 132.22 62.6506 133.288 62.6506C134.859 62.6506 136.083 63.129 136.958 64.0853ZM81.6573 59.3647C81.6573 60.2822 80.9135 61.0261 79.9958 61.0261C79.078 61.0261 78.3342 60.2822 78.3342 59.3646C78.3342 58.4469 79.0782 57.7031 79.9958 57.7031C80.9135 57.7031 81.6573 58.4471 81.6573 59.3647Z" fill="#0E1111"/>
<path d="M40.8108 53.3028L30.1146 57.7287C29.5198 57.9748 29.5259 58.8198 30.1245 59.0571L40.8653 63.3164C41.809 63.6907 42.86 63.6907 43.8037 63.3164L54.5446 59.0569C55.143 58.8198 55.1495 57.975 54.5544 57.7288L43.8585 53.3026C42.8826 52.8988 41.7865 52.8988 40.8106 53.3026" fill="#0E1111"/>
<path d="M43.2875 65.6422V76.2828C43.2875 76.7887 43.7979 77.1354 44.2683 76.9489L56.2368 72.3033C56.3703 72.2504 56.4848 72.1586 56.5655 72.0398C56.6462 71.921 56.6893 71.7807 56.6893 71.6372V60.9967C56.6893 60.4906 56.1789 60.1441 55.7085 60.3306L43.74 64.9762C43.6065 65.0291 43.492 65.1209 43.4114 65.2397C43.3307 65.3585 43.2876 65.4986 43.2875 65.6422Z" fill="#0E1111"/>
<path d="M40.4926 66.1912L36.9406 67.9063L36.58 68.0806L29.0819 71.6733C28.6068 71.9026 28 71.5562 28 71.0282V61.0413C28 60.8503 28.0979 60.6853 28.2293 60.5613C28.2832 60.5076 28.3443 60.4618 28.4109 60.4251C28.5899 60.3176 28.8455 60.2889 29.0628 60.3748L40.433 64.88C41.0109 65.1093 41.0563 65.919 40.4926 66.1912Z" fill="#0E1111"/>
<path d="M40.4927 66.1912L36.9407 67.9063L28.2293 60.5611C28.2832 60.5075 28.3443 60.4617 28.4109 60.4251C28.59 60.3176 28.8455 60.2889 29.0628 60.3748L40.433 64.88C41.0109 65.1093 41.0563 65.919 40.4927 66.1912Z" fill="#0E1111"/>
</g>
<g clip-path="url(#clip4_2836_67)">
<path d="M367 53H374.636V76.9998H367V53ZM410.636 53H397.545V60.6362H403V76.9998H410.636V60.6362H416.091V53H410.636ZM431.364 53H418.273V60.6362H423.727V76.9998H431.363V60.6362H436.818V53H431.364ZM452.091 53H439V60.6362H444.454V76.9998H452.091V60.6362H457.545V53H452.091ZM395.364 60.6362V53H377.909V76.9998H385.545V70.4547H392.091V62.8185H385.545V60.6362H395.364Z" fill="#0E1111"/>
</g>
<g clip-path="url(#clip5_2836_67)">
<path d="M538.185 69.4539C538.185 70.5368 537.765 71.5753 537.016 72.341C536.268 73.1067 535.253 73.5369 534.195 73.5369C533.136 73.5369 532.121 73.1067 531.373 72.341C530.624 71.5753 530.204 70.5368 530.204 69.4539V60.5126H526.971V69.4613C526.971 71.4195 527.731 73.2975 529.085 74.6821C530.438 76.0668 532.273 76.8447 534.187 76.8447C536.101 76.8447 537.937 76.0668 539.29 74.6821C540.643 73.2975 541.404 71.4195 541.404 69.4613V60.5126H538.171L538.185 69.4539Z" fill="#0E1111"/>
<path d="M547.855 60.5126H544.6V76.6823H547.855V60.5126Z" fill="#0E1111"/>
<path d="M506.18 63.5695C506.987 63.5715 507.781 63.7742 508.494 64.1601C509.206 64.546 509.817 65.1035 510.272 65.7846L512.863 63.8058C512.055 62.6306 510.964 61.6884 509.697 61.0696C508.429 60.4509 507.027 60.1766 505.626 60.2733C504.225 60.3699 502.872 60.8342 501.697 61.6214C500.522 62.4085 499.565 63.4921 498.918 64.7676C498.272 66.043 497.957 67.4674 498.005 68.9034C498.052 70.3395 498.461 71.7388 499.19 72.9665C499.92 74.1942 500.947 75.2088 502.171 75.9126C503.395 76.6165 504.776 76.986 506.18 76.9852C507.485 76.9816 508.77 76.6596 509.929 76.0457C511.087 75.4319 512.086 74.544 512.841 73.4559L510.272 71.4624C509.791 72.1814 509.136 72.761 508.372 73.145C507.607 73.529 506.759 73.7045 505.909 73.6542C505.058 73.604 504.235 73.3298 503.519 72.8584C502.803 72.3869 502.218 71.7341 501.82 70.9632C501.423 70.1922 501.228 69.3294 501.252 68.4584C501.277 67.5874 501.521 66.7376 501.961 65.9916C502.401 65.2455 503.022 64.6284 503.764 64.2002C504.506 63.772 505.343 63.5471 506.195 63.5473L506.18 63.5695Z" fill="#0E1111"/>
<path d="M567.664 67.0325C568.891 62.9716 572.412 63.2152 572.412 63.2152C573.506 63.1984 574.571 63.5694 575.428 64.2653C576.284 64.9611 576.879 65.9389 577.11 67.0325H567.664ZM572.355 60.2397C570.229 60.3043 568.212 61.2136 566.731 62.7747C565.25 64.3357 564.421 66.4258 564.421 68.6014C564.421 70.777 565.25 72.867 566.731 74.4282C568.212 75.9892 570.229 76.8985 572.355 76.9632C573.7 76.9677 575.027 76.641 576.223 76.0107C577.394 75.441 578.424 74.6052 579.232 73.5667L576.836 71.8391C576.34 72.5213 575.692 73.0735 574.947 73.4508C574.202 73.8281 573.381 74.0196 572.55 74.0098C571.33 74.0366 570.143 73.603 569.216 72.7915C568.331 72.0166 567.73 70.9568 567.513 69.7865H580.271C580.682 60.0108 572.333 60.2618 572.333 60.2618L572.355 60.2397Z" fill="#0E1111"/>
<path d="M560.845 68.5755C560.349 68.2249 559.817 67.9327 559.257 67.7042C558.688 67.4613 558.105 67.2542 557.511 67.084C556.933 66.9142 556.407 66.737 555.945 66.5598C554.235 65.91 554.393 64.9059 554.393 64.9059C554.392 64.6879 554.441 64.4727 554.537 64.2778C554.632 64.0828 554.771 63.9135 554.942 63.7836C555.418 63.4434 555.993 63.2794 556.573 63.3184C557.835 63.327 559.061 63.7545 560.065 64.5367L561.761 62.1298C560.671 61.2292 559.374 60.6295 557.993 60.3878C556.613 60.1461 555.194 60.2705 553.874 60.749C553.026 61.1423 552.311 61.7817 551.815 62.5876C551.32 63.3936 551.067 64.3307 551.088 65.2824C551.071 65.9993 551.227 66.7095 551.543 67.3498C551.824 67.8983 552.236 68.3656 552.741 68.7083C553.782 69.3344 554.908 69.7996 556.082 70.089C556.659 70.2441 557.186 70.4066 557.662 70.569C557.662 70.569 559.243 71.0416 559.221 72.2524C559.223 72.4994 559.165 72.743 559.052 72.961C558.938 73.179 558.773 73.3643 558.572 73.5002C558.572 73.5002 556.125 75.2353 552.452 72.1786L550.792 74.4822C551.824 75.5528 553.116 76.3224 554.536 76.7117C555.955 77.1011 557.451 77.0961 558.867 76.6972C559.889 76.4561 560.801 75.8693 561.456 75.0318C562.111 74.1943 562.47 73.1551 562.476 72.0826C562.517 71.4044 562.389 70.7266 562.104 70.113C561.819 69.4995 561.385 68.9703 560.845 68.5755Z" fill="#0E1111"/>
<path d="M546.354 57.6036C546.799 57.5781 547.226 57.4182 547.582 57.1443C547.937 56.8703 548.206 56.4945 548.353 56.0645C548.5 55.6344 548.519 55.1694 548.408 54.7282C548.297 54.287 548.06 53.8895 547.728 53.5859C547.396 53.2823 546.983 53.0863 546.542 53.0226C546.102 52.9589 545.652 53.0305 545.251 53.2282C544.85 53.4259 544.515 53.7409 544.289 54.1333C544.062 54.5257 543.955 54.978 543.98 55.4329C543.995 55.7353 544.069 56.0315 544.197 56.3045C544.325 56.5775 544.505 56.8219 544.726 57.0236C544.946 57.2254 545.204 57.3805 545.483 57.48C545.763 57.5796 546.059 57.6216 546.354 57.6036Z" fill="#0E1111"/>
<path d="M519.083 62.1371V60.5128H515.8V76.6825H519.083V68.2211C519.083 68.2211 519.083 67.9701 519.083 67.5787C519.163 66.3678 519.971 63.887 523.976 63.887V60.1953C522.187 60.3058 520.477 60.9847 519.083 62.1371Z" fill="#0E1111"/>
</g>
<defs>
<clipPath id="clip0_2836_67">
<rect width="147.711" height="24" fill="white" transform="translate(179 53)"/>
</clipPath>
<clipPath id="clip1_2836_67">
<rect width="90" height="24" fill="white" transform="translate(273 4)"/>
</clipPath>
<clipPath id="clip2_2836_67">
<rect width="129.73" height="24" fill="white" transform="translate(103 4)"/>
</clipPath>
<clipPath id="clip3_2836_67">
<rect width="110.27" height="24" fill="white" transform="translate(28 53)"/>
</clipPath>
<clipPath id="clip4_2836_67">
<rect width="90.5453" height="24" fill="white" transform="translate(367 53)"/>
</clipPath>
<clipPath id="clip5_2836_67">
<rect width="82.2857" height="24" fill="white" transform="translate(498 53)"/>
</clipPath>
</defs>
</svg>
