<svg width="32" height="32" viewBox="0 0 32 32" fill="none" xmlns="http://www.w3.org/2000/svg">
<path fill-rule="evenodd" clip-rule="evenodd" d="M16.0133 5.34831C15.8024 5.34831 15.5936 5.38999 15.3989 5.47096C15.2042 5.55193 15.0274 5.67059 14.8788 5.82012L14.8761 5.82277L13.9428 6.75611L13.9401 6.75875C13.1413 7.55313 12.0607 7.99932 10.9341 7.99996H9.59996C9.17562 7.99996 8.76865 8.16854 8.46859 8.46859C8.16854 8.76865 7.99996 9.17562 7.99996 9.59996V10.9333C7.99932 12.0599 7.55313 13.1413 6.75875 13.9401L6.75611 13.9428L5.82277 14.8761L5.82012 14.8788C5.67059 15.0274 5.55193 15.2042 5.47096 15.3989C5.38999 15.5936 5.34831 15.8024 5.34831 16.0133C5.34831 16.2242 5.38999 16.433 5.47096 16.6277C5.55193 16.8224 5.67059 16.9992 5.82012 17.1478L5.82278 17.1505L6.75876 18.0865C7.55313 18.8853 7.99932 19.9659 7.99996 21.0925V22.4266C7.99996 22.851 8.16854 23.2579 8.46859 23.558C8.76865 23.8581 9.17562 24.0266 9.59996 24.0266H10.9333C12.0599 24.0273 13.1413 24.4735 13.9401 25.2678L13.9428 25.2705L14.8788 26.2065C15.0274 26.356 15.2042 26.4747 15.3989 26.5556C15.5936 26.6366 15.8024 26.6783 16.0133 26.6783C16.2242 26.6783 16.433 26.6366 16.6277 26.5556C16.8224 26.4747 16.9992 26.356 17.1478 26.2065L17.1505 26.2038L18.0838 25.2705L18.0865 25.2678C18.8853 24.4735 19.9659 24.0273 21.0925 24.0266H22.4266C22.851 24.0266 23.2579 23.8581 23.558 23.558C23.8581 23.2579 24.0266 22.851 24.0266 22.4266V21.0933C24.0273 19.9667 24.4735 18.8853 25.2678 18.0865L25.2705 18.0838L26.2038 17.1505L26.2065 17.1478C26.356 16.9992 26.4747 16.8224 26.5556 16.6277C26.6366 16.433 26.6783 16.2242 26.6783 16.0133C26.6783 15.8024 26.6366 15.5936 26.5556 15.3989C26.4747 15.2042 26.356 15.0274 26.2065 14.8788L26.2038 14.8761L25.2705 13.9428L25.2682 13.9405C24.4728 13.1412 24.0266 12.059 24.0266 10.9333V9.59996C24.0266 9.17562 23.8581 8.76865 23.558 8.46859C23.2579 8.16854 22.851 7.99996 22.4266 7.99996H21.0933C19.9676 7.99996 18.8854 7.5538 18.0861 6.7584L18.0838 6.75611L17.1505 5.82277L17.1478 5.82012C16.9992 5.67059 16.8224 5.55193 16.6277 5.47096C16.433 5.38999 16.2242 5.34831 16.0133 5.34831ZM14.375 3.00872C14.8942 2.7928 15.451 2.68164 16.0133 2.68164C16.5756 2.68164 17.1324 2.7928 17.6516 3.00872C18.1702 3.22438 18.6411 3.54032 19.0373 3.93839C19.0378 3.93886 19.0383 3.93933 19.0388 3.93981L19.9671 4.8682C19.9675 4.86853 19.9678 4.86887 19.9682 4.8692C20.2674 5.16651 20.6728 5.3333 21.0933 5.3333H22.4266C23.5582 5.3333 24.6435 5.78282 25.4436 6.58298C26.2438 7.38313 26.6933 8.46837 26.6933 9.59996V10.9333C26.6933 11.354 26.8602 11.7595 27.1578 12.0589C27.1576 12.0587 27.158 12.0591 27.1578 12.0589L28.0868 12.9878C28.0873 12.9883 28.0878 12.9888 28.0883 12.9893C28.4863 13.3855 28.8022 13.8564 29.0179 14.375C29.2338 14.8942 29.345 15.451 29.345 16.0133C29.345 16.5756 29.2338 17.1324 29.0179 17.6516C28.8023 18.1701 28.4865 18.6408 28.0886 19.037C28.088 19.0376 28.0874 19.0382 28.0868 19.0388L27.1588 19.9668C27.1584 19.9672 27.158 19.9676 27.1576 19.9679C26.8604 20.2674 26.6935 20.6721 26.6933 21.0941V22.4266C26.6933 23.5582 26.2438 24.6435 25.4436 25.4436C24.6435 26.2438 23.5582 26.6933 22.4266 26.6933H21.0941C20.6721 26.6935 20.2674 26.8604 19.9679 27.1576C19.9676 27.158 19.9672 27.1584 19.9668 27.1588L19.0388 28.0868C19.0382 28.0874 19.0376 28.088 19.037 28.0886C18.6408 28.4865 18.1701 28.8023 17.6516 29.0179C17.1324 29.2338 16.5756 29.345 16.0133 29.345C15.451 29.345 14.8942 29.2338 14.375 29.0179C13.8564 28.8022 13.3855 28.4863 12.9893 28.0883C12.9888 28.0878 12.9883 28.0873 12.9878 28.0868L12.0598 27.1588C12.0595 27.1585 12.0601 27.159 12.0598 27.1588C11.7603 26.8614 11.3546 26.6935 10.9325 26.6933H9.59996C8.46837 26.6933 7.38313 26.2438 6.58298 25.4436C5.78282 24.6435 5.3333 23.5582 5.3333 22.4266V21.0937C5.33296 20.6719 5.16608 20.2673 4.86899 19.9679C4.86861 19.9676 4.86823 19.9672 4.86784 19.9668L3.93981 19.0388C3.93933 19.0383 3.93886 19.0378 3.93839 19.0373C3.54032 18.6411 3.22438 18.1702 3.00872 17.6516C2.7928 17.1324 2.68164 16.5756 2.68164 16.0133C2.68164 15.451 2.7928 14.8942 3.00872 14.375C3.22436 13.8564 3.54025 13.3856 3.93825 12.9894C3.93877 12.9889 3.93929 12.9884 3.93981 12.9878L4.86784 12.0598C4.86823 12.0594 4.86861 12.059 4.86899 12.0587C5.16608 11.7593 5.33296 11.3547 5.3333 10.9329V9.59996C5.3333 8.46837 5.78282 7.38313 6.58298 6.58298C7.38313 5.78282 8.46837 5.3333 9.59996 5.3333H10.9329C11.3547 5.33296 11.7593 5.16608 12.0587 4.86899C12.059 4.86861 12.0594 4.86823 12.0598 4.86784L12.9878 3.93981C12.9884 3.93929 12.9889 3.93877 12.9894 3.93825C13.3856 3.54025 13.8564 3.22436 14.375 3.00872ZM20.9428 12.3905C21.4635 12.9112 21.4635 13.7554 20.9428 14.2761L15.6095 19.6095C15.0888 20.1302 14.2446 20.1302 13.7239 19.6095L11.0572 16.9428C10.5365 16.4221 10.5365 15.5779 11.0572 15.0572C11.5779 14.5365 12.4221 14.5365 12.9428 15.0572L14.6667 16.781L19.0572 12.3905C19.5779 11.8698 20.4221 11.8698 20.9428 12.3905Z" fill="#E53071"/>
</svg>
